<svg width="40" height="40" fill="currentColor" xmlns="http://www.w3.org/2000/svg" id="floppy-dialog">
<g>
<path d="M.5.5h3v3h-3z"/>
<path d="M.5 3.5h3v3h-3z"/><path d="M.5 6.5h3v3h-3z"/>
<path d="M.5 9.5h3v3h-3z"/><path d="M.5 12.5h3v3h-3z"/><path d="M.5 15.5h3v3h-3z"/>
<path d="M.5 18.5h3v3h-3z"/><path d="M.5 21.5h3v3h-3z"/>
<path d="M.5 24.5h3v3h-3z"/><path d="M.5 27.5h3v3h-3z"/><path d="M.5 30.5h3v3h-3z"/>
<path d="M.5 33.5h3v3h-3z"/><path d="M.5 36.5h3v3h-3z"/><path d="M33.5.5v3h-3v-3z"/>
<path d="M30.5.5v3h-3v-3z"/>
<path d="M27.5.5v3h-3v-3z"/><path d="M24.5.5v3h-3v-3z"/>
<path d="M21.5.5v3h-3v-3z"/><path d="M18.5.5v3h-3v-3z"/>
<path d="M15.5.5v3h-3v-3z"/><path d="M12.5.5v3h-3v-3z"/><path d="M9.5.5v3h-3v-3z"/>
<path d="M6.5.5v3h-3v-3z"/><path d="M36.5 3.5v3h-3v-3z"/><path d="M9.5 6.5v3h-3v-3z"/>
<path d="M9.5 3.5v3h-3v-3z"/><path d="M9.5 9.5v3h-3v-3z"/>
<path d="M30.5 6.5v3h-3v-3z"/><path d="M30.5 3.5v3h-3v-3z"/>
<path d="M30.5 9.5v3h-3v-3z"/><path d="M24.5 6.5v3h-3v-3z"/><path d="M24.5 3.5v3h-3v-3z"/>
<path d="M24.5 9.5v3h-3v-3z"/><path d="M30.5 12.5v3h-3v-3z"/>
<path d="M27.5 12.5v3h-3v-3z"/><path d="M24.5 12.5v3h-3v-3z"/>
<path d="M21.5 12.5v3h-3v-3z"/><path d="M18.5 12.5v3h-3v-3z"/>
<path d="M15.5 12.5v3h-3v-3z"/><path d="M12.5 12.5v3h-3v-3z"/><path d="M9.5 12.5v3h-3v-3z"/>
<path d="M33.5 21.5v3h-3v-3z"/><path d="M30.5 21.5v3h-3v-3z"/>
<path d="M27.5 21.5v3h-3v-3z"/><path d="M24.5 21.5v3h-3v-3z"/>
<path d="M21.5 21.5v3h-3v-3z"/><path d="M18.5 21.5v3h-3v-3z"/><path d="M15.5 21.5v3h-3v-3z"/>
<path d="M12.5 21.5v3h-3v-3z"/><path d="M9.5 21.5v3h-3v-3z"/>
<path d="M33.5 24.5v3h-3v-3z"/><path d="M9.5 24.5v3h-3v-3z"/>
<path d="M33.5 27.5v3h-3v-3z"/><path d="M9.5 27.5v3h-3v-3z"/>
<path d="M33.5 30.5v3h-3v-3z"/><path d="M9.5 30.5v3h-3v-3z"/>
<path d="M9.5 33.5v3h-3v-3z"/>
<path d="M33.5 33.5v3h-3v-3z"/><path d="M36.5 36.5v3h-3v-3z"/>
<path d="M33.5 36.5v3h-3v-3z"/><path d="M30.5 36.5v3h-3v-3z"/>
<path d="M27.5 36.5v3h-3v-3z"/><path d="M24.5 36.5v3h-3v-3z"/>
<path d="M21.5 36.5v3h-3v-3z"/><path d="M18.5 36.5v3h-3v-3z"/>
<path d="M15.5 36.5v3h-3v-3z"/><path d="M12.5 36.5v3h-3v-3z"/>
<path d="M9.5 36.5v3h-3v-3z"/><path d="M6.5 36.5v3h-3v-3z"/>
<path d="M39.5 39.5h-3v-3h3z"/><path d="M39.5 36.5h-3v-3h3z"/>
<path d="M39.5 33.5h-3v-3h3z"/>
<path d="M39.5 30.5h-3v-3h3z"/><path d="M39.5 27.5h-3v-3h3z"/>
<path d="M39.5 24.5h-3v-3h3z"/>
<path d="M39.5 21.5h-3v-3h3z"/><path d="M39.5 18.5h-3v-3h3z"/>
<path d="M39.5 15.5h-3v-3h3z"/><path d="M39.5 12.5h-3v-3h3z"/>
<path d="M39.5 9.5h-3v-3h3z"/>
</g>
</svg>